<?xml version="1.0" standalone="no"?>
<!DOCTYPE svg PUBLIC "-//W3C//DTD SVG 20010904//EN"
 "http://www.w3.org/TR/2001/REC-SVG-20010904/DTD/svg10.dtd">
<svg version="1.0" xmlns="http://www.w3.org/2000/svg"
 width="600.000000pt" height="557.000000pt" viewBox="0 0 600.000000 557.000000"
 preserveAspectRatio="xMidYMid meet">

<g transform="translate(0.000000,557.000000) scale(0.100000,-0.100000)"
fill="#000000" stroke="none">
<path d="M0 5070 l0 -500 195 0 195 0 0 310 0 310 270 0 270 0 0 190 0 190
-465 0 -465 0 0 -500z"/>
<path d="M5070 5380 l0 -190 270 0 270 0 0 -310 0 -310 195 0 195 0 0 500 0
500 -465 0 -465 0 0 -190z"/>
<path d="M1727 4554 c-459 -77 -826 -448 -902 -910 -46 -282 12 -622 156 -904
144 -282 370 -534 894 -995 530 -467 701 -636 1004 -993 24 -29 51 -62 59 -75
9 -12 26 -34 38 -49 l22 -27 63 82 c261 340 497 586 949 987 102 90 192 171
201 179 9 9 52 47 95 86 92 81 344 331 429 425 164 183 313 426 378 620 71
214 95 463 62 664 -76 467 -444 835 -911 911 -410 67 -822 -102 -1068 -439
-49 -67 -75 -113 -154 -268 -19 -38 -38 -68 -42 -68 -4 0 -23 30 -42 68 -79
155 -105 201 -154 268 -247 338 -664 508 -1077 438z m2871 -837 c4 -22 -120
-151 -202 -208 -167 -118 -333 -144 -589 -94 -80 15 -149 24 -165 20 -44 -10
-156 -81 -206 -129 -43 -43 -46 -48 -46 -98 1 -68 16 -109 68 -182 61 -86 55
-130 -19 -160 -22 -9 -67 -17 -99 -17 -74 -1 -107 20 -161 104 -50 77 -52 122
-8 210 64 125 246 267 534 416 137 71 206 82 350 56 118 -21 239 -19 320 6 65
20 125 48 155 74 33 27 63 29 68 2z m-1824 -27 c-1 -19 -38 -165 -84 -325 -45
-159 -86 -303 -90 -320 -69 -258 -212 -706 -257 -808 l-26 -58 28 -30 c16 -16
45 -34 65 -39 38 -10 45 -9 250 48 41 12 113 28 160 36 75 13 87 13 100 0 13
-14 12 -18 -13 -39 -82 -72 -250 -148 -474 -215 -163 -49 -184 -48 -259 5 -27
19 -54 35 -60 35 -6 0 -31 -16 -55 -35 -57 -45 -99 -47 -140 -6 -36 37 -36 53
1 118 54 94 152 178 232 197 31 7 34 16 133 311 119 356 289 931 280 952 -7
20 -36 10 -125 -45 -114 -69 -158 -108 -169 -149 -15 -54 3 -120 55 -199 52
-80 61 -107 44 -139 -15 -28 -38 -39 -113 -55 -43 -9 -66 -9 -91 0 -74 24
-164 165 -150 234 14 79 109 201 224 290 133 103 455 278 505 274 27 -3 30 -6
29 -38z m1111 -340 c25 -79 -289 -1049 -411 -1267 -39 -71 -136 -163 -171
-163 -20 0 -23 5 -23 38 0 20 26 116 59 212 33 96 83 249 111 340 28 91 62
197 75 235 14 39 43 135 65 215 62 222 109 305 214 382 46 33 72 36 81 8z"/>
<path d="M0 465 l0 -465 500 0 500 0 0 195 0 195 -310 0 -310 0 0 270 0 270
-190 0 -190 0 0 -465z"/>
<path d="M5620 660 l0 -270 -310 0 -310 0 0 -195 0 -195 500 0 500 0 0 465 0
465 -190 0 -190 0 0 -270z"/>
</g>
</svg>
